M48
; DRILL file {KiCad (6.0.7)} date Thu Oct 27 14:14:11 2022
; FORMAT={-:-/ absolute / inch / decimal}
; #@! TF.CreationDate,2022-10-27T14:14:11-04:00
; #@! TF.GenerationSoftware,Kicad,Pcbnew,(6.0.7)
; #@! TF.FileFunction,NonPlated,1,2,NPTH
FMAT,2
INCH
; #@! TA.AperFunction,NonPlated,NPTH,ComponentDrill
T1C0.0256
; #@! TA.AperFunction,NonPlated,NPTH,ComponentDrill
T2C0.0689
; #@! TA.AperFunction,NonPlated,NPTH,ComponentDrill
T3C0.1570
%
G90
G05
T1
X3.9487Y-2.2586
X4.1763Y-2.2586
T2
X2.3625Y-3.5
X2.3625Y-4.25
X2.3625Y-5.0
X2.3625Y-5.75
X2.7625Y-3.5
X2.7625Y-4.25
X2.7625Y-5.0
X2.7625Y-5.75
X3.1125Y-3.5
X3.1125Y-4.25
X3.1125Y-5.0
X3.1125Y-5.75
X3.5125Y-3.5
X3.5125Y-4.25
X3.5125Y-5.0
X3.5125Y-5.75
X3.8625Y-3.5
X3.8625Y-4.25
X3.8625Y-5.0
X3.8625Y-5.75
X4.2625Y-3.5
X4.2625Y-4.25
X4.2625Y-5.0
X4.2625Y-5.75
X4.6125Y-3.5
X4.6125Y-4.25
X4.6125Y-5.0
X4.6125Y-5.75
X5.0125Y-3.5
X5.0125Y-4.25
X5.0125Y-5.0
X5.0125Y-5.75
X5.3625Y-3.5
X5.3625Y-4.25
X5.3625Y-5.0
X5.3625Y-5.75
X5.7625Y-3.5
X5.7625Y-4.25
X5.7625Y-5.0
X5.7625Y-5.75
T3
X2.5625Y-3.5
X2.5625Y-4.25
X2.5625Y-5.0
X2.5625Y-5.75
X3.3125Y-3.5
X3.3125Y-4.25
X3.3125Y-5.0
X3.3125Y-5.75
X4.0625Y-3.5
X4.0625Y-4.25
X4.0625Y-5.0
X4.0625Y-5.75
X4.8125Y-3.5
X4.8125Y-4.25
X4.8125Y-5.0
X4.8125Y-5.75
X5.5625Y-3.5
X5.5625Y-4.25
X5.5625Y-5.0
X5.5625Y-5.75
T0
M30
