%TF.GenerationSoftware,KiCad,Pcbnew,(6.0.7)*%
%TF.CreationDate,2022-10-27T14:14:10-04:00*%
%TF.ProjectId,BlueTeamPad,426c7565-5465-4616-9d50-61642e6b6963,rev?*%
%TF.SameCoordinates,Original*%
%TF.FileFunction,Legend,Top*%
%TF.FilePolarity,Positive*%
%FSLAX46Y46*%
G04 Gerber Fmt 4.6, Leading zero omitted, Abs format (unit mm)*
G04 Created by KiCad (PCBNEW (6.0.7)) date 2022-10-27 14:14:10*
%MOMM*%
%LPD*%
G01*
G04 APERTURE LIST*
%ADD10C,0.150000*%
%ADD11C,0.120000*%
%ADD12C,1.397000*%
%ADD13C,4.400000*%
%ADD14C,3.987800*%
%ADD15C,1.750000*%
%ADD16C,3.300000*%
%ADD17R,1.700000X1.700000*%
%ADD18O,1.700000X1.700000*%
%ADD19C,0.650000*%
%ADD20O,1.000000X1.600000*%
%ADD21O,1.000000X2.100000*%
G04 APERTURE END LIST*
D10*
X93322946Y-158452380D02*
X93447946Y-157452380D01*
X93894375Y-158452380D02*
X93537232Y-157880952D01*
X94019375Y-157452380D02*
X93376517Y-158023809D01*
X94406279Y-157785714D02*
X94322946Y-158452380D01*
X94394375Y-157880952D02*
X94447946Y-157833333D01*
X94549136Y-157785714D01*
X94691994Y-157785714D01*
X94781279Y-157833333D01*
X94816994Y-157928571D01*
X94751517Y-158452380D01*
X95370565Y-158452380D02*
X95281279Y-158404761D01*
X95239613Y-158357142D01*
X95203898Y-158261904D01*
X95239613Y-157976190D01*
X95299136Y-157880952D01*
X95352708Y-157833333D01*
X95453898Y-157785714D01*
X95596755Y-157785714D01*
X95686041Y-157833333D01*
X95727708Y-157880952D01*
X95763422Y-157976190D01*
X95727708Y-158261904D01*
X95668184Y-158357142D01*
X95614613Y-158404761D01*
X95513422Y-158452380D01*
X95370565Y-158452380D01*
X96120565Y-157785714D02*
X96227708Y-158452380D01*
X96477708Y-157976190D01*
X96608660Y-158452380D01*
X96882470Y-157785714D01*
X97930089Y-158166666D02*
X98406279Y-158166666D01*
X97799136Y-158452380D02*
X98257470Y-157452380D01*
X98465803Y-158452380D01*
X98799136Y-158452380D02*
X98924136Y-157452380D01*
X98876517Y-157833333D02*
X98977708Y-157785714D01*
X99168184Y-157785714D01*
X99257470Y-157833333D01*
X99299136Y-157880952D01*
X99334851Y-157976190D01*
X99299136Y-158261904D01*
X99239613Y-158357142D01*
X99186041Y-158404761D01*
X99084851Y-158452380D01*
X98894375Y-158452380D01*
X98805089Y-158404761D01*
X99787232Y-157785714D02*
X99703898Y-158452380D01*
X99775327Y-157880952D02*
X99828898Y-157833333D01*
X99930089Y-157785714D01*
X100072946Y-157785714D01*
X100162232Y-157833333D01*
X100197946Y-157928571D01*
X100132470Y-158452380D01*
X100751517Y-158452380D02*
X100662232Y-158404761D01*
X100620565Y-158357142D01*
X100584851Y-158261904D01*
X100620565Y-157976190D01*
X100680089Y-157880952D01*
X100733660Y-157833333D01*
X100834851Y-157785714D01*
X100977708Y-157785714D01*
X101066994Y-157833333D01*
X101108660Y-157880952D01*
X101144375Y-157976190D01*
X101108660Y-158261904D01*
X101049136Y-158357142D01*
X100995565Y-158404761D01*
X100894375Y-158452380D01*
X100751517Y-158452380D01*
X101513422Y-158452380D02*
X101596755Y-157785714D01*
X101572946Y-157976190D02*
X101632470Y-157880952D01*
X101686041Y-157833333D01*
X101787232Y-157785714D01*
X101882470Y-157785714D01*
X102132470Y-158452380D02*
X102215803Y-157785714D01*
X102203898Y-157880952D02*
X102257470Y-157833333D01*
X102358660Y-157785714D01*
X102501517Y-157785714D01*
X102590803Y-157833333D01*
X102626517Y-157928571D01*
X102561041Y-158452380D01*
X102626517Y-157928571D02*
X102686041Y-157833333D01*
X102787232Y-157785714D01*
X102930089Y-157785714D01*
X103019375Y-157833333D01*
X103055089Y-157928571D01*
X102989613Y-158452380D01*
X103894375Y-158452380D02*
X103959851Y-157928571D01*
X103924136Y-157833333D01*
X103834851Y-157785714D01*
X103644375Y-157785714D01*
X103543184Y-157833333D01*
X103900327Y-158404761D02*
X103799136Y-158452380D01*
X103561041Y-158452380D01*
X103471755Y-158404761D01*
X103436041Y-158309523D01*
X103447946Y-158214285D01*
X103507470Y-158119047D01*
X103608660Y-158071428D01*
X103846755Y-158071428D01*
X103947946Y-158023809D01*
X104513422Y-158452380D02*
X104424136Y-158404761D01*
X104388422Y-158309523D01*
X104495565Y-157452380D01*
X104947946Y-158404761D02*
X104941994Y-158452380D01*
X104882470Y-158547619D01*
X104828898Y-158595238D01*
X106531279Y-157928571D02*
X106197946Y-157928571D01*
X106132470Y-158452380D02*
X106257470Y-157452380D01*
X106733660Y-157452380D01*
X106989613Y-158452380D02*
X107072946Y-157785714D01*
X107114613Y-157452380D02*
X107061041Y-157500000D01*
X107102708Y-157547619D01*
X107156279Y-157500000D01*
X107114613Y-157452380D01*
X107102708Y-157547619D01*
X107549136Y-157785714D02*
X107465803Y-158452380D01*
X107537232Y-157880952D02*
X107590803Y-157833333D01*
X107691994Y-157785714D01*
X107834851Y-157785714D01*
X107924136Y-157833333D01*
X107959851Y-157928571D01*
X107894375Y-158452380D01*
X108799136Y-158452380D02*
X108924136Y-157452380D01*
X108805089Y-158404761D02*
X108703898Y-158452380D01*
X108513422Y-158452380D01*
X108424136Y-158404761D01*
X108382470Y-158357142D01*
X108346755Y-158261904D01*
X108382470Y-157976190D01*
X108441994Y-157880952D01*
X108495565Y-157833333D01*
X108596755Y-157785714D01*
X108787232Y-157785714D01*
X108876517Y-157833333D01*
X110102708Y-157928571D02*
X110436041Y-157928571D01*
X110513422Y-158452380D02*
X110037232Y-158452380D01*
X110162232Y-157452380D01*
X110638422Y-157452380D01*
X110930089Y-157785714D02*
X111084851Y-158452380D01*
X111406279Y-157785714D01*
X111703898Y-158452380D02*
X111787232Y-157785714D01*
X111828898Y-157452380D02*
X111775327Y-157500000D01*
X111816994Y-157547619D01*
X111870565Y-157500000D01*
X111828898Y-157452380D01*
X111816994Y-157547619D01*
X112322946Y-158452380D02*
X112233660Y-158404761D01*
X112197946Y-158309523D01*
X112305089Y-157452380D01*
X62992261Y-73588571D02*
X63325595Y-73588571D01*
X63468452Y-74112380D02*
X62992261Y-74112380D01*
X62992261Y-73112380D01*
X63468452Y-73112380D01*
X63897023Y-74112380D02*
X63897023Y-73112380D01*
X64468452Y-74112380D01*
X64468452Y-73112380D01*
X65516071Y-74017142D02*
X65468452Y-74064761D01*
X65325595Y-74112380D01*
X65230357Y-74112380D01*
X65087500Y-74064761D01*
X64992261Y-73969523D01*
X64944642Y-73874285D01*
X64897023Y-73683809D01*
X64897023Y-73540952D01*
X64944642Y-73350476D01*
X64992261Y-73255238D01*
X65087500Y-73160000D01*
X65230357Y-73112380D01*
X65325595Y-73112380D01*
X65468452Y-73160000D01*
X65516071Y-73207619D01*
X66897023Y-73112380D02*
X66992261Y-73112380D01*
X67087500Y-73160000D01*
X67135119Y-73207619D01*
X67182738Y-73302857D01*
X67230357Y-73493333D01*
X67230357Y-73731428D01*
X67182738Y-73921904D01*
X67135119Y-74017142D01*
X67087500Y-74064761D01*
X66992261Y-74112380D01*
X66897023Y-74112380D01*
X66801785Y-74064761D01*
X66754166Y-74017142D01*
X66706547Y-73921904D01*
X66658928Y-73731428D01*
X66658928Y-73493333D01*
X66706547Y-73302857D01*
X66754166Y-73207619D01*
X66801785Y-73160000D01*
X66897023Y-73112380D01*
X124428571Y-158452380D02*
X124428571Y-157452380D01*
X124857142Y-158452380D02*
X124857142Y-157928571D01*
X124809523Y-157833333D01*
X124714285Y-157785714D01*
X124571428Y-157785714D01*
X124476190Y-157833333D01*
X124428571Y-157880952D01*
X125190476Y-157785714D02*
X125571428Y-157785714D01*
X125333333Y-157452380D02*
X125333333Y-158309523D01*
X125380952Y-158404761D01*
X125476190Y-158452380D01*
X125571428Y-158452380D01*
X125761904Y-157785714D02*
X126142857Y-157785714D01*
X125904761Y-157452380D02*
X125904761Y-158309523D01*
X125952380Y-158404761D01*
X126047619Y-158452380D01*
X126142857Y-158452380D01*
X126476190Y-157785714D02*
X126476190Y-158785714D01*
X126476190Y-157833333D02*
X126571428Y-157785714D01*
X126761904Y-157785714D01*
X126857142Y-157833333D01*
X126904761Y-157880952D01*
X126952380Y-157976190D01*
X126952380Y-158261904D01*
X126904761Y-158357142D01*
X126857142Y-158404761D01*
X126761904Y-158452380D01*
X126571428Y-158452380D01*
X126476190Y-158404761D01*
X127333333Y-158404761D02*
X127428571Y-158452380D01*
X127619047Y-158452380D01*
X127714285Y-158404761D01*
X127761904Y-158309523D01*
X127761904Y-158261904D01*
X127714285Y-158166666D01*
X127619047Y-158119047D01*
X127476190Y-158119047D01*
X127380952Y-158071428D01*
X127333333Y-157976190D01*
X127333333Y-157928571D01*
X127380952Y-157833333D01*
X127476190Y-157785714D01*
X127619047Y-157785714D01*
X127714285Y-157833333D01*
X128190476Y-158357142D02*
X128238095Y-158404761D01*
X128190476Y-158452380D01*
X128142857Y-158404761D01*
X128190476Y-158357142D01*
X128190476Y-158452380D01*
X128190476Y-157833333D02*
X128238095Y-157880952D01*
X128190476Y-157928571D01*
X128142857Y-157880952D01*
X128190476Y-157833333D01*
X128190476Y-157928571D01*
X129380952Y-157404761D02*
X128523809Y-158690476D01*
X130428571Y-157404761D02*
X129571428Y-158690476D01*
X131190476Y-157785714D02*
X131190476Y-158595238D01*
X131142857Y-158690476D01*
X131095238Y-158738095D01*
X130999999Y-158785714D01*
X130857142Y-158785714D01*
X130761904Y-158738095D01*
X131190476Y-158404761D02*
X131095238Y-158452380D01*
X130904761Y-158452380D01*
X130809523Y-158404761D01*
X130761904Y-158357142D01*
X130714285Y-158261904D01*
X130714285Y-157976190D01*
X130761904Y-157880952D01*
X130809523Y-157833333D01*
X130904761Y-157785714D01*
X131095238Y-157785714D01*
X131190476Y-157833333D01*
X131666666Y-158452380D02*
X131666666Y-157785714D01*
X131666666Y-157452380D02*
X131619047Y-157500000D01*
X131666666Y-157547619D01*
X131714285Y-157500000D01*
X131666666Y-157452380D01*
X131666666Y-157547619D01*
X131999999Y-157785714D02*
X132380952Y-157785714D01*
X132142857Y-157452380D02*
X132142857Y-158309523D01*
X132190476Y-158404761D01*
X132285714Y-158452380D01*
X132380952Y-158452380D01*
X132714285Y-158452380D02*
X132714285Y-157452380D01*
X133142857Y-158452380D02*
X133142857Y-157928571D01*
X133095238Y-157833333D01*
X132999999Y-157785714D01*
X132857142Y-157785714D01*
X132761904Y-157833333D01*
X132714285Y-157880952D01*
X134047619Y-157785714D02*
X134047619Y-158452380D01*
X133619047Y-157785714D02*
X133619047Y-158309523D01*
X133666666Y-158404761D01*
X133761904Y-158452380D01*
X133904761Y-158452380D01*
X133999999Y-158404761D01*
X134047619Y-158357142D01*
X134523809Y-158452380D02*
X134523809Y-157452380D01*
X134523809Y-157833333D02*
X134619047Y-157785714D01*
X134809523Y-157785714D01*
X134904761Y-157833333D01*
X134952380Y-157880952D01*
X135000000Y-157976190D01*
X135000000Y-158261904D01*
X134952380Y-158357142D01*
X134904761Y-158404761D01*
X134809523Y-158452380D01*
X134619047Y-158452380D01*
X134523809Y-158404761D01*
X135428571Y-158357142D02*
X135476190Y-158404761D01*
X135428571Y-158452380D01*
X135380952Y-158404761D01*
X135428571Y-158357142D01*
X135428571Y-158452380D01*
X136333333Y-158404761D02*
X136238095Y-158452380D01*
X136047619Y-158452380D01*
X135952380Y-158404761D01*
X135904761Y-158357142D01*
X135857142Y-158261904D01*
X135857142Y-157976190D01*
X135904761Y-157880952D01*
X135952380Y-157833333D01*
X136047619Y-157785714D01*
X136238095Y-157785714D01*
X136333333Y-157833333D01*
X136904761Y-158452380D02*
X136809523Y-158404761D01*
X136761904Y-158357142D01*
X136714285Y-158261904D01*
X136714285Y-157976190D01*
X136761904Y-157880952D01*
X136809523Y-157833333D01*
X136904761Y-157785714D01*
X137047619Y-157785714D01*
X137142857Y-157833333D01*
X137190476Y-157880952D01*
X137238095Y-157976190D01*
X137238095Y-158261904D01*
X137190476Y-158357142D01*
X137142857Y-158404761D01*
X137047619Y-158452380D01*
X136904761Y-158452380D01*
X137666666Y-158452380D02*
X137666666Y-157785714D01*
X137666666Y-157880952D02*
X137714285Y-157833333D01*
X137809523Y-157785714D01*
X137952380Y-157785714D01*
X138047619Y-157833333D01*
X138095238Y-157928571D01*
X138095238Y-158452380D01*
X138095238Y-157928571D02*
X138142857Y-157833333D01*
X138238095Y-157785714D01*
X138380952Y-157785714D01*
X138476190Y-157833333D01*
X138523809Y-157928571D01*
X138523809Y-158452380D01*
X139714285Y-157404761D02*
X138857142Y-158690476D01*
X139904761Y-157785714D02*
X140285714Y-157785714D01*
X140047619Y-158452380D02*
X140047619Y-157595238D01*
X140095238Y-157500000D01*
X140190476Y-157452380D01*
X140285714Y-157452380D01*
X141000000Y-158404761D02*
X140904761Y-158452380D01*
X140714285Y-158452380D01*
X140619047Y-158404761D01*
X140571428Y-158309523D01*
X140571428Y-157928571D01*
X140619047Y-157833333D01*
X140714285Y-157785714D01*
X140904761Y-157785714D01*
X141000000Y-157833333D01*
X141047619Y-157928571D01*
X141047619Y-158023809D01*
X140571428Y-158119047D01*
X141904761Y-158452380D02*
X141904761Y-157928571D01*
X141857142Y-157833333D01*
X141761904Y-157785714D01*
X141571428Y-157785714D01*
X141476190Y-157833333D01*
X141904761Y-158404761D02*
X141809523Y-158452380D01*
X141571428Y-158452380D01*
X141476190Y-158404761D01*
X141428571Y-158309523D01*
X141428571Y-158214285D01*
X141476190Y-158119047D01*
X141571428Y-158071428D01*
X141809523Y-158071428D01*
X141904761Y-158023809D01*
X142380952Y-158452380D02*
X142380952Y-157785714D01*
X142380952Y-157976190D02*
X142428571Y-157880952D01*
X142476190Y-157833333D01*
X142571428Y-157785714D01*
X142666666Y-157785714D01*
X143000000Y-158452380D02*
X143000000Y-157452380D01*
X143428571Y-158452380D02*
X143428571Y-157928571D01*
X143380952Y-157833333D01*
X143285714Y-157785714D01*
X143142857Y-157785714D01*
X143047619Y-157833333D01*
X143000000Y-157880952D01*
X144285714Y-158404761D02*
X144190476Y-158452380D01*
X143999999Y-158452380D01*
X143904761Y-158404761D01*
X143857142Y-158309523D01*
X143857142Y-157928571D01*
X143904761Y-157833333D01*
X143999999Y-157785714D01*
X144190476Y-157785714D01*
X144285714Y-157833333D01*
X144333333Y-157928571D01*
X144333333Y-158023809D01*
X143857142Y-158119047D01*
X144761904Y-158452380D02*
X144761904Y-157785714D01*
X144761904Y-157976190D02*
X144809523Y-157880952D01*
X144857142Y-157833333D01*
X144952380Y-157785714D01*
X145047619Y-157785714D01*
X145380952Y-158452380D02*
X145380952Y-157452380D01*
X145380952Y-157833333D02*
X145476190Y-157785714D01*
X145666666Y-157785714D01*
X145761904Y-157833333D01*
X145809523Y-157880952D01*
X145857142Y-157976190D01*
X145857142Y-158261904D01*
X145809523Y-158357142D01*
X145761904Y-158404761D01*
X145666666Y-158452380D01*
X145476190Y-158452380D01*
X145380952Y-158404761D01*
X146238095Y-158404761D02*
X146333333Y-158452380D01*
X146523809Y-158452380D01*
X146619047Y-158404761D01*
X146666666Y-158309523D01*
X146666666Y-158261904D01*
X146619047Y-158166666D01*
X146523809Y-158119047D01*
X146380952Y-158119047D01*
X146285714Y-158071428D01*
X146238095Y-157976190D01*
X146238095Y-157928571D01*
X146285714Y-157833333D01*
X146380952Y-157785714D01*
X146523809Y-157785714D01*
X146619047Y-157833333D01*
X147619047Y-158452380D02*
X147047619Y-158452380D01*
X147333333Y-158452380D02*
X147333333Y-157452380D01*
X147238095Y-157595238D01*
X147142857Y-157690476D01*
X147047619Y-157738095D01*
X139192261Y-73588571D02*
X139525595Y-73588571D01*
X139668452Y-74112380D02*
X139192261Y-74112380D01*
X139192261Y-73112380D01*
X139668452Y-73112380D01*
X140097023Y-74112380D02*
X140097023Y-73112380D01*
X140668452Y-74112380D01*
X140668452Y-73112380D01*
X141716071Y-74017142D02*
X141668452Y-74064761D01*
X141525595Y-74112380D01*
X141430357Y-74112380D01*
X141287500Y-74064761D01*
X141192261Y-73969523D01*
X141144642Y-73874285D01*
X141097023Y-73683809D01*
X141097023Y-73540952D01*
X141144642Y-73350476D01*
X141192261Y-73255238D01*
X141287500Y-73160000D01*
X141430357Y-73112380D01*
X141525595Y-73112380D01*
X141668452Y-73160000D01*
X141716071Y-73207619D01*
X143430357Y-74112380D02*
X142858928Y-74112380D01*
X143144642Y-74112380D02*
X143144642Y-73112380D01*
X143049404Y-73255238D01*
X142954166Y-73350476D01*
X142858928Y-73398095D01*
X59333333Y-157928571D02*
X59476190Y-157976190D01*
X59523809Y-158023809D01*
X59571428Y-158119047D01*
X59571428Y-158261904D01*
X59523809Y-158357142D01*
X59476190Y-158404761D01*
X59380952Y-158452380D01*
X59000000Y-158452380D01*
X59000000Y-157452380D01*
X59333333Y-157452380D01*
X59428571Y-157500000D01*
X59476190Y-157547619D01*
X59523809Y-157642857D01*
X59523809Y-157738095D01*
X59476190Y-157833333D01*
X59428571Y-157880952D01*
X59333333Y-157928571D01*
X59000000Y-157928571D01*
X60142857Y-158452380D02*
X60047619Y-158404761D01*
X60000000Y-158309523D01*
X60000000Y-157452380D01*
X60952380Y-157785714D02*
X60952380Y-158452380D01*
X60523809Y-157785714D02*
X60523809Y-158309523D01*
X60571428Y-158404761D01*
X60666666Y-158452380D01*
X60809523Y-158452380D01*
X60904761Y-158404761D01*
X60952380Y-158357142D01*
X61809523Y-158404761D02*
X61714285Y-158452380D01*
X61523809Y-158452380D01*
X61428571Y-158404761D01*
X61380952Y-158309523D01*
X61380952Y-157928571D01*
X61428571Y-157833333D01*
X61523809Y-157785714D01*
X61714285Y-157785714D01*
X61809523Y-157833333D01*
X61857142Y-157928571D01*
X61857142Y-158023809D01*
X61380952Y-158119047D01*
X62142857Y-157452380D02*
X62714285Y-157452380D01*
X62428571Y-158452380D02*
X62428571Y-157452380D01*
X63428571Y-158404761D02*
X63333333Y-158452380D01*
X63142857Y-158452380D01*
X63047619Y-158404761D01*
X63000000Y-158309523D01*
X63000000Y-157928571D01*
X63047619Y-157833333D01*
X63142857Y-157785714D01*
X63333333Y-157785714D01*
X63428571Y-157833333D01*
X63476190Y-157928571D01*
X63476190Y-158023809D01*
X63000000Y-158119047D01*
X64333333Y-158452380D02*
X64333333Y-157928571D01*
X64285714Y-157833333D01*
X64190476Y-157785714D01*
X64000000Y-157785714D01*
X63904761Y-157833333D01*
X64333333Y-158404761D02*
X64238095Y-158452380D01*
X64000000Y-158452380D01*
X63904761Y-158404761D01*
X63857142Y-158309523D01*
X63857142Y-158214285D01*
X63904761Y-158119047D01*
X64000000Y-158071428D01*
X64238095Y-158071428D01*
X64333333Y-158023809D01*
X64809523Y-158452380D02*
X64809523Y-157785714D01*
X64809523Y-157880952D02*
X64857142Y-157833333D01*
X64952380Y-157785714D01*
X65095238Y-157785714D01*
X65190476Y-157833333D01*
X65238095Y-157928571D01*
X65238095Y-158452380D01*
X65238095Y-157928571D02*
X65285714Y-157833333D01*
X65380952Y-157785714D01*
X65523809Y-157785714D01*
X65619047Y-157833333D01*
X65666666Y-157928571D01*
X65666666Y-158452380D01*
X66142857Y-158452380D02*
X66142857Y-157452380D01*
X66523809Y-157452380D01*
X66619047Y-157500000D01*
X66666666Y-157547619D01*
X66714285Y-157642857D01*
X66714285Y-157785714D01*
X66666666Y-157880952D01*
X66619047Y-157928571D01*
X66523809Y-157976190D01*
X66142857Y-157976190D01*
X67571428Y-158452380D02*
X67571428Y-157928571D01*
X67523809Y-157833333D01*
X67428571Y-157785714D01*
X67238095Y-157785714D01*
X67142857Y-157833333D01*
X67571428Y-158404761D02*
X67476190Y-158452380D01*
X67238095Y-158452380D01*
X67142857Y-158404761D01*
X67095238Y-158309523D01*
X67095238Y-158214285D01*
X67142857Y-158119047D01*
X67238095Y-158071428D01*
X67476190Y-158071428D01*
X67571428Y-158023809D01*
X68476190Y-158452380D02*
X68476190Y-157452380D01*
X68476190Y-158404761D02*
X68380952Y-158452380D01*
X68190476Y-158452380D01*
X68095238Y-158404761D01*
X68047619Y-158357142D01*
X68000000Y-158261904D01*
X68000000Y-157976190D01*
X68047619Y-157880952D01*
X68095238Y-157833333D01*
X68190476Y-157785714D01*
X68380952Y-157785714D01*
X68476190Y-157833333D01*
X70285714Y-158452380D02*
X69952380Y-157976190D01*
X69714285Y-158452380D02*
X69714285Y-157452380D01*
X70095238Y-157452380D01*
X70190476Y-157500000D01*
X70238095Y-157547619D01*
X70285714Y-157642857D01*
X70285714Y-157785714D01*
X70238095Y-157880952D01*
X70190476Y-157928571D01*
X70095238Y-157976190D01*
X69714285Y-157976190D01*
X71095238Y-158404761D02*
X71000000Y-158452380D01*
X70809523Y-158452380D01*
X70714285Y-158404761D01*
X70666666Y-158309523D01*
X70666666Y-157928571D01*
X70714285Y-157833333D01*
X70809523Y-157785714D01*
X71000000Y-157785714D01*
X71095238Y-157833333D01*
X71142857Y-157928571D01*
X71142857Y-158023809D01*
X70666666Y-158119047D01*
X71476190Y-157785714D02*
X71714285Y-158452380D01*
X71952380Y-157785714D01*
X73619047Y-158452380D02*
X73047619Y-158452380D01*
X73333333Y-158452380D02*
X73333333Y-157452380D01*
X73238095Y-157595238D01*
X73142857Y-157690476D01*
X73047619Y-157738095D01*
X74047619Y-158357142D02*
X74095238Y-158404761D01*
X74047619Y-158452380D01*
X74000000Y-158404761D01*
X74047619Y-158357142D01*
X74047619Y-158452380D01*
X75047619Y-158452380D02*
X74476190Y-158452380D01*
X74761904Y-158452380D02*
X74761904Y-157452380D01*
X74666666Y-157595238D01*
X74571428Y-157690476D01*
X74476190Y-157738095D01*
%TO.C,OL1*%
X86459880Y-67333630D02*
X86459880Y-67143154D01*
X86507500Y-67047916D01*
X86602738Y-66952678D01*
X86793214Y-66905059D01*
X87126547Y-66905059D01*
X87317023Y-66952678D01*
X87412261Y-67047916D01*
X87459880Y-67143154D01*
X87459880Y-67333630D01*
X87412261Y-67428869D01*
X87317023Y-67524107D01*
X87126547Y-67571726D01*
X86793214Y-67571726D01*
X86602738Y-67524107D01*
X86507500Y-67428869D01*
X86459880Y-67333630D01*
X87459880Y-66000297D02*
X87459880Y-66476488D01*
X86459880Y-66476488D01*
X86936071Y-65666964D02*
X86936071Y-65333630D01*
X87459880Y-65190773D02*
X87459880Y-65666964D01*
X86459880Y-65666964D01*
X86459880Y-65190773D01*
X87459880Y-64762202D02*
X86459880Y-64762202D01*
X86459880Y-64524107D01*
X86507500Y-64381250D01*
X86602738Y-64286011D01*
X86697976Y-64238392D01*
X86888452Y-64190773D01*
X87031309Y-64190773D01*
X87221785Y-64238392D01*
X87317023Y-64286011D01*
X87412261Y-64381250D01*
X87459880Y-64524107D01*
X87459880Y-64762202D01*
%TO.C,SW3*%
X134692261Y-61464583D02*
X134739880Y-61321726D01*
X134739880Y-61083630D01*
X134692261Y-60988392D01*
X134644642Y-60940773D01*
X134549404Y-60893154D01*
X134454166Y-60893154D01*
X134358928Y-60940773D01*
X134311309Y-60988392D01*
X134263690Y-61083630D01*
X134216071Y-61274107D01*
X134168452Y-61369345D01*
X134120833Y-61416964D01*
X134025595Y-61464583D01*
X133930357Y-61464583D01*
X133835119Y-61416964D01*
X133787500Y-61369345D01*
X133739880Y-61274107D01*
X133739880Y-61036011D01*
X133787500Y-60893154D01*
X133739880Y-60559821D02*
X134739880Y-60321726D01*
X134025595Y-60131250D01*
X134739880Y-59940773D01*
X133739880Y-59702678D01*
X133739880Y-59416964D02*
X133739880Y-58797916D01*
X134120833Y-59131250D01*
X134120833Y-58988392D01*
X134168452Y-58893154D01*
X134216071Y-58845535D01*
X134311309Y-58797916D01*
X134549404Y-58797916D01*
X134644642Y-58845535D01*
X134692261Y-58893154D01*
X134739880Y-58988392D01*
X134739880Y-59274107D01*
X134692261Y-59369345D01*
X134644642Y-59416964D01*
%TO.C,SW2*%
X58492261Y-61464583D02*
X58539880Y-61321726D01*
X58539880Y-61083630D01*
X58492261Y-60988392D01*
X58444642Y-60940773D01*
X58349404Y-60893154D01*
X58254166Y-60893154D01*
X58158928Y-60940773D01*
X58111309Y-60988392D01*
X58063690Y-61083630D01*
X58016071Y-61274107D01*
X57968452Y-61369345D01*
X57920833Y-61416964D01*
X57825595Y-61464583D01*
X57730357Y-61464583D01*
X57635119Y-61416964D01*
X57587500Y-61369345D01*
X57539880Y-61274107D01*
X57539880Y-61036011D01*
X57587500Y-60893154D01*
X57539880Y-60559821D02*
X58539880Y-60321726D01*
X57825595Y-60131250D01*
X58539880Y-59940773D01*
X57539880Y-59702678D01*
X57635119Y-59369345D02*
X57587500Y-59321726D01*
X57539880Y-59226488D01*
X57539880Y-58988392D01*
X57587500Y-58893154D01*
X57635119Y-58845535D01*
X57730357Y-58797916D01*
X57825595Y-58797916D01*
X57968452Y-58845535D01*
X58539880Y-59416964D01*
X58539880Y-58797916D01*
D11*
%TO.C,SW3*%
X146787500Y-66181250D02*
X146787500Y-65581250D01*
X146787500Y-65581250D02*
X147087500Y-65881250D01*
X135187500Y-62381250D02*
X135187500Y-59981250D01*
X135187500Y-59981250D02*
X139287500Y-59981250D01*
X143287500Y-59981250D02*
X147387500Y-59981250D01*
X143287500Y-71781250D02*
X147387500Y-71781250D01*
X135187500Y-67181250D02*
X135187500Y-64581250D01*
X135187500Y-71781250D02*
X135187500Y-69381250D01*
X139287500Y-71781250D02*
X135187500Y-71781250D01*
X147387500Y-71781250D02*
X147387500Y-59981250D01*
X147087500Y-65881250D02*
X146787500Y-66181250D01*
X143287500Y-65881250D02*
G75*
G03*
X143287500Y-65881250I-2000000J0D01*
G01*
%TO.C,SW2*%
X70587500Y-66181250D02*
X70587500Y-65581250D01*
X71187500Y-71781250D02*
X71187500Y-59981250D01*
X63087500Y-71781250D02*
X58987500Y-71781250D01*
X58987500Y-62381250D02*
X58987500Y-59981250D01*
X70587500Y-65581250D02*
X70887500Y-65881250D01*
X58987500Y-71781250D02*
X58987500Y-69381250D01*
X58987500Y-59981250D02*
X63087500Y-59981250D01*
X67087500Y-59981250D02*
X71187500Y-59981250D01*
X70887500Y-65881250D02*
X70587500Y-66181250D01*
X67087500Y-71781250D02*
X71187500Y-71781250D01*
X58987500Y-67181250D02*
X58987500Y-64581250D01*
X67087500Y-65881250D02*
G75*
G03*
X67087500Y-65881250I-2000000J0D01*
G01*
%TD*%
D12*
%TO.C,OL1*%
X85457500Y-62071250D03*
X85457500Y-64611250D03*
X85457500Y-67151250D03*
X85457500Y-69691250D03*
%TD*%
%LPC*%
D13*
%TO.C,H2*%
X151606250Y-55562500D03*
%TD*%
%TO.C,H1*%
X54768750Y-55562500D03*
%TD*%
%TO.C,H3*%
X54768750Y-156368750D03*
%TD*%
%TO.C,H4*%
X151606250Y-156368750D03*
%TD*%
D14*
%TO.C,SW20*%
X84137500Y-146050000D03*
D15*
X79057500Y-146050000D03*
X89217500Y-146050000D03*
D16*
X80327500Y-143510000D03*
X86677500Y-140970000D03*
%TD*%
D15*
%TO.C,SW5*%
X79057500Y-88900000D03*
X89217500Y-88900000D03*
D14*
X84137500Y-88900000D03*
D16*
X80327500Y-86360000D03*
X86677500Y-83820000D03*
%TD*%
D17*
%TO.C,SW1*%
X142494000Y-55626000D03*
D18*
X139954000Y-55626000D03*
%TD*%
D15*
%TO.C,SW6*%
X98107500Y-88900000D03*
X108267500Y-88900000D03*
D14*
X103187500Y-88900000D03*
D16*
X99377500Y-86360000D03*
X105727500Y-83820000D03*
%TD*%
D15*
%TO.C,SW21*%
X98107500Y-146050000D03*
X108267500Y-146050000D03*
D14*
X103187500Y-146050000D03*
D16*
X99377500Y-143510000D03*
X105727500Y-140970000D03*
%TD*%
D14*
%TO.C,SW22*%
X122237500Y-146050000D03*
D15*
X117157500Y-146050000D03*
X127317500Y-146050000D03*
D16*
X118427500Y-143510000D03*
X124777500Y-140970000D03*
%TD*%
D14*
%TO.C,SW13*%
X141287500Y-107950000D03*
D15*
X146367500Y-107950000D03*
X136207500Y-107950000D03*
D16*
X137477500Y-105410000D03*
X143827500Y-102870000D03*
%TD*%
D15*
%TO.C,SW18*%
X146367500Y-127000000D03*
D14*
X141287500Y-127000000D03*
D15*
X136207500Y-127000000D03*
D16*
X137477500Y-124460000D03*
X143827500Y-121920000D03*
%TD*%
D15*
%TO.C,SW16*%
X108267500Y-127000000D03*
X98107500Y-127000000D03*
D14*
X103187500Y-127000000D03*
D16*
X99377500Y-124460000D03*
X105727500Y-121920000D03*
%TD*%
D15*
%TO.C,SW11*%
X98107500Y-107950000D03*
X108267500Y-107950000D03*
D14*
X103187500Y-107950000D03*
D16*
X99377500Y-105410000D03*
X105727500Y-102870000D03*
%TD*%
D15*
%TO.C,SW12*%
X127317500Y-107950000D03*
D14*
X122237500Y-107950000D03*
D15*
X117157500Y-107950000D03*
D16*
X118427500Y-105410000D03*
X124777500Y-102870000D03*
%TD*%
D14*
%TO.C,SW9*%
X65087500Y-107950000D03*
D15*
X70167500Y-107950000D03*
X60007500Y-107950000D03*
D16*
X61277500Y-105410000D03*
X67627500Y-102870000D03*
%TD*%
D14*
%TO.C,SW10*%
X84137500Y-107950000D03*
D15*
X79057500Y-107950000D03*
X89217500Y-107950000D03*
D16*
X80327500Y-105410000D03*
X86677500Y-102870000D03*
%TD*%
D15*
%TO.C,SW7*%
X127317500Y-88900000D03*
D14*
X122237500Y-88900000D03*
D15*
X117157500Y-88900000D03*
D16*
X118427500Y-86360000D03*
X124777500Y-83820000D03*
%TD*%
D14*
%TO.C,SW15*%
X84137500Y-127000000D03*
D15*
X89217500Y-127000000D03*
X79057500Y-127000000D03*
D16*
X80327500Y-124460000D03*
X86677500Y-121920000D03*
%TD*%
D19*
%TO.C,J1*%
X100297500Y-57368750D03*
X106077500Y-57368750D03*
D20*
X107507500Y-53718750D03*
D21*
X98867500Y-57898750D03*
D20*
X98867500Y-53718750D03*
D21*
X107507500Y-57898750D03*
%TD*%
D15*
%TO.C,SW4*%
X70167500Y-88900000D03*
X60007500Y-88900000D03*
D14*
X65087500Y-88900000D03*
D16*
X61277500Y-86360000D03*
X67627500Y-83820000D03*
%TD*%
D14*
%TO.C,SW8*%
X141287500Y-88900000D03*
D15*
X146367500Y-88900000D03*
X136207500Y-88900000D03*
D16*
X137477500Y-86360000D03*
X143827500Y-83820000D03*
%TD*%
D15*
%TO.C,SW23*%
X136207500Y-146050000D03*
D14*
X141287500Y-146050000D03*
D15*
X146367500Y-146050000D03*
D16*
X137477500Y-143510000D03*
X143827500Y-140970000D03*
%TD*%
D17*
%TO.C,J2*%
X98150000Y-76425000D03*
D18*
X100690000Y-76425000D03*
X103230000Y-76425000D03*
X105770000Y-76425000D03*
X108310000Y-76425000D03*
%TD*%
D15*
%TO.C,SW19*%
X70167500Y-146050000D03*
D14*
X65087500Y-146050000D03*
D15*
X60007500Y-146050000D03*
D16*
X61277500Y-143510000D03*
X67627500Y-140970000D03*
%TD*%
D15*
%TO.C,SW14*%
X60007500Y-127000000D03*
X70167500Y-127000000D03*
D14*
X65087500Y-127000000D03*
D16*
X61277500Y-124460000D03*
X67627500Y-121920000D03*
%TD*%
D14*
%TO.C,SW17*%
X122237500Y-127000000D03*
D15*
X117157500Y-127000000D03*
X127317500Y-127000000D03*
D16*
X118427500Y-124460000D03*
X124777500Y-121920000D03*
%TD*%
M02*
