%TF.GenerationSoftware,KiCad,Pcbnew,(6.0.7)*%
%TF.CreationDate,2022-10-27T14:14:10-04:00*%
%TF.ProjectId,BlueTeamPad,426c7565-5465-4616-9d50-61642e6b6963,rev?*%
%TF.SameCoordinates,Original*%
%TF.FileFunction,Soldermask,Top*%
%TF.FilePolarity,Negative*%
%FSLAX46Y46*%
G04 Gerber Fmt 4.6, Leading zero omitted, Abs format (unit mm)*
G04 Created by KiCad (PCBNEW (6.0.7)) date 2022-10-27 14:14:10*
%MOMM*%
%LPD*%
G01*
G04 APERTURE LIST*
%ADD10C,4.400000*%
%ADD11C,3.987800*%
%ADD12C,1.750000*%
%ADD13C,3.300000*%
%ADD14R,1.700000X1.700000*%
%ADD15O,1.700000X1.700000*%
%ADD16C,0.650000*%
%ADD17O,1.000000X1.600000*%
%ADD18O,1.000000X2.100000*%
G04 APERTURE END LIST*
D10*
%TO.C,H2*%
X151606250Y-55562500D03*
%TD*%
%TO.C,H1*%
X54768750Y-55562500D03*
%TD*%
%TO.C,H3*%
X54768750Y-156368750D03*
%TD*%
%TO.C,H4*%
X151606250Y-156368750D03*
%TD*%
D11*
%TO.C,SW20*%
X84137500Y-146050000D03*
D12*
X79057500Y-146050000D03*
X89217500Y-146050000D03*
D13*
X80327500Y-143510000D03*
X86677500Y-140970000D03*
%TD*%
D12*
%TO.C,SW5*%
X79057500Y-88900000D03*
X89217500Y-88900000D03*
D11*
X84137500Y-88900000D03*
D13*
X80327500Y-86360000D03*
X86677500Y-83820000D03*
%TD*%
D14*
%TO.C,SW1*%
X142494000Y-55626000D03*
D15*
X139954000Y-55626000D03*
%TD*%
D12*
%TO.C,SW6*%
X98107500Y-88900000D03*
X108267500Y-88900000D03*
D11*
X103187500Y-88900000D03*
D13*
X99377500Y-86360000D03*
X105727500Y-83820000D03*
%TD*%
D12*
%TO.C,SW21*%
X98107500Y-146050000D03*
X108267500Y-146050000D03*
D11*
X103187500Y-146050000D03*
D13*
X99377500Y-143510000D03*
X105727500Y-140970000D03*
%TD*%
D11*
%TO.C,SW22*%
X122237500Y-146050000D03*
D12*
X117157500Y-146050000D03*
X127317500Y-146050000D03*
D13*
X118427500Y-143510000D03*
X124777500Y-140970000D03*
%TD*%
D11*
%TO.C,SW13*%
X141287500Y-107950000D03*
D12*
X146367500Y-107950000D03*
X136207500Y-107950000D03*
D13*
X137477500Y-105410000D03*
X143827500Y-102870000D03*
%TD*%
D12*
%TO.C,SW18*%
X146367500Y-127000000D03*
D11*
X141287500Y-127000000D03*
D12*
X136207500Y-127000000D03*
D13*
X137477500Y-124460000D03*
X143827500Y-121920000D03*
%TD*%
D12*
%TO.C,SW16*%
X108267500Y-127000000D03*
X98107500Y-127000000D03*
D11*
X103187500Y-127000000D03*
D13*
X99377500Y-124460000D03*
X105727500Y-121920000D03*
%TD*%
D12*
%TO.C,SW11*%
X98107500Y-107950000D03*
X108267500Y-107950000D03*
D11*
X103187500Y-107950000D03*
D13*
X99377500Y-105410000D03*
X105727500Y-102870000D03*
%TD*%
D12*
%TO.C,SW12*%
X127317500Y-107950000D03*
D11*
X122237500Y-107950000D03*
D12*
X117157500Y-107950000D03*
D13*
X118427500Y-105410000D03*
X124777500Y-102870000D03*
%TD*%
D11*
%TO.C,SW9*%
X65087500Y-107950000D03*
D12*
X70167500Y-107950000D03*
X60007500Y-107950000D03*
D13*
X61277500Y-105410000D03*
X67627500Y-102870000D03*
%TD*%
D11*
%TO.C,SW10*%
X84137500Y-107950000D03*
D12*
X79057500Y-107950000D03*
X89217500Y-107950000D03*
D13*
X80327500Y-105410000D03*
X86677500Y-102870000D03*
%TD*%
D12*
%TO.C,SW7*%
X127317500Y-88900000D03*
D11*
X122237500Y-88900000D03*
D12*
X117157500Y-88900000D03*
D13*
X118427500Y-86360000D03*
X124777500Y-83820000D03*
%TD*%
D11*
%TO.C,SW15*%
X84137500Y-127000000D03*
D12*
X89217500Y-127000000D03*
X79057500Y-127000000D03*
D13*
X80327500Y-124460000D03*
X86677500Y-121920000D03*
%TD*%
D16*
%TO.C,J1*%
X100297500Y-57368750D03*
X106077500Y-57368750D03*
D17*
X107507500Y-53718750D03*
D18*
X98867500Y-57898750D03*
D17*
X98867500Y-53718750D03*
D18*
X107507500Y-57898750D03*
%TD*%
D12*
%TO.C,SW4*%
X70167500Y-88900000D03*
X60007500Y-88900000D03*
D11*
X65087500Y-88900000D03*
D13*
X61277500Y-86360000D03*
X67627500Y-83820000D03*
%TD*%
D11*
%TO.C,SW8*%
X141287500Y-88900000D03*
D12*
X146367500Y-88900000D03*
X136207500Y-88900000D03*
D13*
X137477500Y-86360000D03*
X143827500Y-83820000D03*
%TD*%
D12*
%TO.C,SW23*%
X136207500Y-146050000D03*
D11*
X141287500Y-146050000D03*
D12*
X146367500Y-146050000D03*
D13*
X137477500Y-143510000D03*
X143827500Y-140970000D03*
%TD*%
D14*
%TO.C,J2*%
X98150000Y-76425000D03*
D15*
X100690000Y-76425000D03*
X103230000Y-76425000D03*
X105770000Y-76425000D03*
X108310000Y-76425000D03*
%TD*%
D12*
%TO.C,SW19*%
X70167500Y-146050000D03*
D11*
X65087500Y-146050000D03*
D12*
X60007500Y-146050000D03*
D13*
X61277500Y-143510000D03*
X67627500Y-140970000D03*
%TD*%
D12*
%TO.C,SW14*%
X60007500Y-127000000D03*
X70167500Y-127000000D03*
D11*
X65087500Y-127000000D03*
D13*
X61277500Y-124460000D03*
X67627500Y-121920000D03*
%TD*%
D11*
%TO.C,SW17*%
X122237500Y-127000000D03*
D12*
X117157500Y-127000000D03*
X127317500Y-127000000D03*
D13*
X118427500Y-124460000D03*
X124777500Y-121920000D03*
%TD*%
M02*
