M48
; DRILL file {KiCad (6.0.7)} date Thu Oct 27 14:14:11 2022
; FORMAT={-:-/ absolute / inch / decimal}
; #@! TF.CreationDate,2022-10-27T14:14:11-04:00
; #@! TF.GenerationSoftware,Kicad,Pcbnew,(6.0.7)
; #@! TF.FileFunction,Plated,1,2,PTH
FMAT,2
INCH
; #@! TA.AperFunction,Plated,PTH,ViaDrill
T1C0.0118
; #@! TA.AperFunction,Plated,PTH,ComponentDrill
T2C0.0138
; #@! TA.AperFunction,Plated,PTH,ViaDrill
T3C0.0157
; #@! TA.AperFunction,Plated,PTH,ViaDrill
T4C0.0197
; #@! TA.AperFunction,Plated,PTH,ComponentDrill
T5C0.0236
; #@! TA.AperFunction,Plated,PTH,ComponentDrill
T6C0.0320
; #@! TA.AperFunction,Plated,PTH,ComponentDrill
T7C0.0394
; #@! TA.AperFunction,Plated,PTH,ComponentDrill
T8C0.0591
; #@! TA.AperFunction,Plated,PTH,ComponentDrill
T9C0.0866
; #@! TA.AperFunction,Plated,PTH,ComponentDrill
T10C0.1181
%
G90
G05
T1
X2.2Y-3.4
X2.2Y-4.15
X2.2Y-4.9
X2.2Y-5.65
X2.95Y-3.185
X2.95Y-3.4
X2.95Y-4.15
X2.95Y-4.9
X2.95Y-5.65
X3.7Y-3.1864
X3.7Y-3.4
X3.7Y-4.15
X3.7Y-4.9
X3.7Y-5.65
X4.0625Y-2.13
X4.07Y-2.505
X4.09Y-2.4
X4.2Y-2.59
X4.245Y-2.59
X4.3721Y-2.7721
X4.385Y-2.435
X4.385Y-2.4994
X4.45Y-3.1864
X4.45Y-3.4
X4.45Y-4.15
X4.45Y-4.9
X4.45Y-5.65
X4.52Y-3.05
X4.57Y-2.645
X4.61Y-2.96
X4.625Y-2.455
X4.665Y-2.355
X4.7Y-2.41
X4.71Y-2.265
X4.71Y-2.3
X4.905Y-2.59
X4.905Y-3.065
X4.91Y-2.755
X5.045Y-2.45
X5.2Y-3.4
X5.2Y-4.15
X5.2Y-4.9
X5.2Y-5.65
X5.34Y-3.2086
X5.435Y-3.105
X5.84Y-3.46
T2
X4.5838Y-2.6778
X4.5838Y-2.728
X4.5838Y-2.7782
X4.634Y-2.6778
X4.634Y-2.728
X4.634Y-2.7782
X4.6842Y-2.6778
X4.6842Y-2.728
X4.6842Y-2.7782
T3
X4.37Y-2.6296
X4.53Y-2.5
T4
X3.59Y-2.605
X3.88Y-2.385
X3.91Y-2.7
X4.265Y-2.385
T6
X3.3645Y-2.4438
X3.3645Y-2.5437
X3.3645Y-2.6437
X3.3645Y-2.7437
T7
X2.2869Y-2.4953
X2.2869Y-2.6922
X2.8578Y-2.4953
X2.8578Y-2.5938
X2.8578Y-2.6922
X3.8642Y-3.0089
X3.9642Y-3.0089
X4.0642Y-3.0089
X4.1642Y-3.0089
X4.2642Y-3.0089
X5.2869Y-2.4953
X5.2869Y-2.6922
X5.51Y-2.19
X5.61Y-2.19
X5.8578Y-2.4953
X5.8578Y-2.5938
X5.8578Y-2.6922
T9
X2.1562Y-2.1875
X2.1562Y-6.1562
X5.9688Y-2.1875
X5.9688Y-6.1562
T10
X2.4125Y-3.4
X2.4125Y-4.15
X2.4125Y-4.9
X2.4125Y-5.65
X2.6625Y-3.3
X2.6625Y-4.05
X2.6625Y-4.8
X2.6625Y-5.55
X3.1625Y-3.4
X3.1625Y-4.15
X3.1625Y-4.9
X3.1625Y-5.65
X3.4125Y-3.3
X3.4125Y-4.05
X3.4125Y-4.8
X3.4125Y-5.55
X3.9125Y-3.4
X3.9125Y-4.15
X3.9125Y-4.9
X3.9125Y-5.65
X4.1625Y-3.3
X4.1625Y-4.05
X4.1625Y-4.8
X4.1625Y-5.55
X4.6625Y-3.4
X4.6625Y-4.15
X4.6625Y-4.9
X4.6625Y-5.65
X4.9125Y-3.3
X4.9125Y-4.05
X4.9125Y-4.8
X4.9125Y-5.55
X5.4125Y-3.4
X5.4125Y-4.15
X5.4125Y-4.9
X5.4125Y-5.65
X5.6625Y-3.3
X5.6625Y-4.05
X5.6625Y-4.8
X5.6625Y-5.55
T5
G00X3.8924Y-2.1031
M15
G01X3.8924Y-2.1267
M16
G05
G00X3.8924Y-2.2578
M15
G01X3.8924Y-2.3011
M16
G05
G00X4.2326Y-2.1031
M15
G01X4.2326Y-2.1267
M16
G05
G00X4.2326Y-2.2578
M15
G01X4.2326Y-2.3011
M16
G05
T8
G00X2.5881Y-2.3733
M15
G01X2.5369Y-2.3733
M16
G05
G00X2.5881Y-2.8142
M15
G01X2.5369Y-2.8142
M16
G05
G00X5.5881Y-2.3733
M15
G01X5.5369Y-2.3733
M16
G05
G00X5.5881Y-2.8142
M15
G01X5.5369Y-2.8142
M16
G05
T0
M30
